<svg width="255" height="260" viewBox="0 0 255 260" fill="none" xmlns="http://www.w3.org/2000/svg">
<g clip-path="url(#clip0_396_1253)">
<path d="M185.155 246.797C173.59 252.775 160.911 256.578 148.105 258.731C147.779 258.787 147.453 258.843 147.117 258.9C145.407 259.172 143.941 259.28 142.231 258.985C142.231 258.901 142.231 258.817 142.231 258.731C142.522 258.697 142.812 258.663 143.111 258.629C143.49 258.583 143.869 258.538 144.247 258.493C144.535 258.46 144.535 258.46 144.828 258.426C145.767 258.39 145.767 258.39 146.549 257.969C146.934 257.906 147.321 257.856 147.709 257.813C147.951 257.785 148.193 257.757 148.443 257.728C148.703 257.697 148.964 257.667 149.232 257.636C151.407 257.371 153.487 256.999 155.597 256.412C156.474 256.187 157.336 256.058 158.232 255.938C159.107 255.708 159.962 255.446 160.82 255.16C161.205 255.032 161.592 254.908 161.986 254.811C162.722 254.625 163.444 254.4 164.169 254.176C164.449 254.09 164.729 254.004 165.017 253.916C166.423 253.585 166.423 253.585 167.63 252.891C167.999 252.814 168.37 252.747 168.741 252.685C170.017 252.444 171.184 252.042 172.392 251.572C172.964 251.368 172.964 251.368 173.471 251.368C173.471 251.2 173.471 251.032 173.471 250.86C173.634 250.814 173.797 250.767 173.965 250.72C175.01 250.416 176.032 250.112 177.027 249.67C177.789 249.336 177.789 249.336 178.297 249.336C178.297 249.169 178.297 249.001 178.297 248.829C179.052 248.661 179.806 248.493 180.583 248.321C180.583 248.153 180.583 247.986 180.583 247.813C180.968 247.711 180.968 247.711 181.361 247.607C182.042 247.417 182.659 247.178 183.297 246.877C184.166 246.532 184.322 246.527 185.155 246.797Z" fill="#358289"/>
<path d="M92.4502 254.922C93.0369 254.922 93.6236 254.922 94.2281 254.922C94.2281 255.089 94.2281 255.257 94.2281 255.43C94.5054 255.458 94.7827 255.487 95.0684 255.516C96.6745 255.716 98.2344 256.13 99.8043 256.514C101.114 256.824 102.28 257.026 103.625 256.953C103.625 257.121 103.625 257.288 103.625 257.461C103.84 257.48 103.84 257.48 104.06 257.499C104.719 257.559 105.379 257.621 106.038 257.683C106.376 257.713 106.376 257.713 106.721 257.744C107.742 257.841 108.724 257.952 109.715 258.223C110.96 258.559 112.217 258.655 113.499 258.762C113.735 258.784 113.971 258.806 114.214 258.829C115.768 258.965 117.305 259.011 118.865 258.984C118.865 259.152 118.865 259.32 118.865 259.492C116.816 259.759 114.913 259.712 112.864 259.476C112.408 259.425 112.408 259.425 111.942 259.373C105.373 258.592 98.797 257.293 92.4502 255.43C92.4502 255.262 92.4502 255.095 92.4502 254.922Z" fill="#378189"/>
<path d="M32.2558 40.8789C32.4234 41.0465 32.591 41.2141 32.7637 41.3867C32.5647 41.6171 32.3656 41.8476 32.1605 42.085C31.6715 42.6694 31.285 43.2188 30.9858 43.9258C30.8182 43.9258 30.6506 43.9258 30.4779 43.9258C30.4779 44.1771 30.4779 44.4285 30.4779 44.6875C29.1426 45.7031 29.1426 45.7031 28.446 45.7031C28.3936 45.8707 28.3412 46.0383 28.2873 46.2109C27.5502 47.8185 26.3831 49.035 25.1442 50.2734C23.9776 51.6383 22.928 52.9965 22.0964 54.5898C21.9288 54.5898 21.7611 54.5898 21.5884 54.5898C21.5256 54.8726 21.4627 55.1554 21.3979 55.4468C21.0805 56.3672 21.0805 56.3672 20.5566 56.7004C20.3942 56.758 20.2318 56.8156 20.0645 56.875C19.9388 57.1264 19.9388 57.1264 19.8105 57.3828C19.9335 56.148 20.2494 55.4781 21.017 54.5105C21.3264 54.1148 21.3264 54.1148 21.642 53.7111C21.7555 53.5678 21.8691 53.4245 21.986 53.2769C22.3763 52.7795 22.7578 52.2762 23.1381 51.7711C25.3746 48.8046 27.7208 45.9735 30.2199 43.2236C30.9138 42.4546 31.5859 41.6688 32.2558 40.8789Z" fill="#489F91"/>
<path d="M5.33343 83.7891C5.50106 83.8729 5.66869 83.9566 5.8414 84.043C5.72727 84.583 5.61033 85.1225 5.49217 85.6616C5.39493 86.1123 5.39493 86.1123 5.29573 86.5721C5.07945 87.3438 5.07945 87.3438 4.57148 87.8516C3.81404 89.502 3.45062 91.1486 3.18945 92.9346C2.95686 94.1753 2.48723 95.3117 2.03164 96.4844C1.77001 97.2436 1.51861 98.006 1.26969 98.7695C1.10206 98.6857 0.934428 98.602 0.761719 98.5156C1.95643 93.4853 3.51562 88.6286 5.33343 83.7891Z" fill="#439D90"/>
<path d="M18.7952 57.6367C18.9629 57.7205 19.1305 57.8043 19.3032 57.8906C19.3032 58.0582 19.3032 58.2258 19.3032 58.3984C19.1356 58.3984 18.9679 58.3984 18.7952 58.3984C18.7324 58.6655 18.6695 58.9326 18.6047 59.2078C18.3448 60.1349 17.8904 60.7066 17.2713 61.4453C17.2294 61.6129 17.1875 61.7805 17.1443 61.9531C17.0173 62.4609 17.0173 62.4609 16.5887 62.9846C16.0464 63.6734 15.6649 64.3238 15.2553 65.0952C14.8093 65.934 14.3599 66.7276 13.7949 67.4915C13.2455 68.2485 12.8402 68.9789 12.4456 69.8242C12.2763 70.1628 12.107 70.5013 11.9377 70.8398C11.77 70.8398 11.6024 70.8398 11.4297 70.8398C11.851 69.3199 12.6075 68.006 13.3663 66.6345C13.5032 66.3855 13.6401 66.1365 13.7812 65.8799C14.8064 64.0269 15.8757 62.2137 17.0173 60.4297C17.1886 60.1593 17.3598 59.889 17.5362 59.6104C17.9543 58.9515 18.3739 58.2936 18.7952 57.6367Z" fill="#479D90"/>
<path d="M48.7646 26.4062C48.6808 26.6576 48.597 26.909 48.5106 27.168C48.343 27.168 48.1754 27.168 48.0026 27.168C47.9049 27.3948 47.9049 27.3948 47.8052 27.6262C47.4668 28.2336 47.1305 28.546 46.5899 28.9771C45.9174 29.5062 45.9174 29.5062 45.4628 30.2148C45.1275 30.2148 44.7923 30.2148 44.4469 30.2148C44.3631 30.4662 44.2792 30.7176 44.1929 30.9766C43.9414 30.9766 43.69 30.9766 43.4309 30.9766C43.3727 31.1196 43.3144 31.2626 43.2543 31.41C42.8342 32.1481 42.3162 32.6158 41.6848 33.1824C41.4654 33.3824 41.2461 33.5823 41.0201 33.7884C40.4307 34.2408 40.091 34.432 39.3672 34.5312C39.7642 33.5237 40.4646 32.9022 41.2562 32.1985C41.4594 32.0152 41.4594 32.0152 41.6668 31.8282C42.9804 30.6529 44.3408 29.5388 45.7168 28.4375C46.0738 28.1439 46.0738 28.1439 46.4381 27.8444C46.6663 27.6578 46.8945 27.4713 47.1296 27.2791C47.4365 27.0272 47.4365 27.0272 47.7497 26.7702C48.2566 26.4062 48.2566 26.4062 48.7646 26.4062Z" fill="#49A092"/>
<path d="M100.578 2.79276C100.578 2.96034 100.578 3.12792 100.578 3.30057C99.4366 3.721 98.3097 3.96512 97.1156 4.17337C96.5202 4.28927 96.5202 4.28927 96.0452 4.55857C95.0382 5.04747 93.9329 5.23606 92.8475 5.49051C92.4887 5.5779 92.4887 5.5779 92.1227 5.66706C91.8908 5.72204 91.6588 5.77703 91.4198 5.83368C91.2095 5.88364 90.9991 5.93359 90.7824 5.98506C90.1403 6.09784 89.5454 6.10265 88.8948 6.09354C88.5537 6.16729 88.2136 6.24831 87.8789 6.34745C87.8789 6.17987 87.8789 6.01229 87.8789 5.83963C90.8839 4.93476 93.8908 4.04987 96.943 3.31644C97.1627 3.26287 97.3825 3.20929 97.6089 3.15409C98.6159 2.91788 99.5357 2.72272 100.578 2.79276Z" fill="#499E94"/>
<path d="M38.6053 148.027C38.731 148.279 38.731 148.279 38.8593 148.535C38.2417 149.461 37.8589 149.482 36.8274 149.805C36.6598 149.972 36.4922 150.14 36.3194 150.312C35.8145 150.413 35.3062 150.5 34.7955 150.566C34.7117 150.818 34.6279 151.069 34.5416 151.328C33.9879 151.68 33.9879 151.68 33.3034 152.01C32.9665 152.177 32.9665 152.177 32.6228 152.347C32.0017 152.598 32.0017 152.598 31.2398 152.598C31.2398 152.765 31.2398 152.933 31.2398 153.105C31.0145 153.158 30.7893 153.21 30.5572 153.264C29.6573 153.56 29.6573 153.56 29.0809 154.391C28.4459 155.137 28.4459 155.137 27.6364 155.391C27.4006 155.391 27.1649 155.391 26.922 155.391C26.7544 155.223 26.5868 155.055 26.4141 154.883C30.4456 152.536 34.4954 150.235 38.6053 148.027Z" fill="#3A8287"/>
<path d="M86.8624 6.60184C86.4538 7.4187 85.6541 7.58327 84.8305 7.87137C83.9275 8.13048 83.0227 8.3787 82.1141 8.61722C81.2891 8.84634 81.2891 8.84634 80.6765 9.251C79.7276 9.81283 78.7203 10.0991 77.6713 10.4263C77.2598 10.5548 76.8487 10.6847 76.4381 10.8161C76.2573 10.8724 76.0765 10.9287 75.8903 10.9867C75.3803 11.159 75.3803 11.159 74.9251 11.68C74.3854 11.5848 74.3854 11.5848 73.9092 11.4261C74.5078 10.8276 75.013 10.6384 75.7972 10.3202C76.0806 10.2047 76.3639 10.0893 76.6559 9.97032C76.9595 9.84848 77.2632 9.72664 77.5761 9.60111C77.884 9.47698 78.1919 9.35285 78.5092 9.22496C80.3566 8.48399 82.2065 7.74966 84.0685 7.04618C84.2655 6.97018 84.4624 6.89419 84.6652 6.81589C86.0106 6.31801 86.0106 6.31801 86.8624 6.60184Z" fill="#489E91"/>
<path d="M227.316 139.902C231.486 140.567 235.626 141.333 239.761 142.188C239.761 142.355 239.761 142.523 239.761 142.695C239.342 142.779 238.923 142.863 238.491 142.949C238.491 142.782 238.491 142.614 238.491 142.441C238.094 142.4 238.094 142.4 237.69 142.357C235.44 142.111 233.236 141.782 231.021 141.321C230.104 141.146 230.104 141.146 229.142 141.172C228.332 141.172 228.332 141.172 227.713 140.823C227.316 140.41 227.316 140.41 227.316 139.902Z" fill="#37818A"/>
<path d="M75.6875 248.828C76.8022 248.997 77.7146 249.384 78.7353 249.844C78.7353 250.011 78.7353 250.179 78.7353 250.352C78.8833 250.373 79.0313 250.395 79.1837 250.418C80.744 250.685 82.1 251.164 83.5481 251.797C84.7186 252.299 85.9159 252.722 87.1168 253.145C87.1168 253.228 87.1168 253.312 87.1168 253.398C85.172 253.276 83.4968 252.616 81.6879 251.923C81.3912 251.811 81.0946 251.7 80.789 251.585C79.0802 250.94 77.3801 250.276 75.6875 249.59C75.6875 249.338 75.6875 249.087 75.6875 248.828Z" fill="#368288"/>
<path d="M59.9401 18.5352C59.9401 18.7865 59.9401 19.0379 59.9401 19.2969C59.7724 19.4645 59.6048 19.632 59.4321 19.8047C59.1807 19.8047 58.9292 19.8047 58.6701 19.8047C58.644 19.9566 58.6178 20.1084 58.5908 20.2649C58.3762 20.9475 58.2407 21.166 57.6542 21.582C57.323 21.6701 56.9893 21.7485 56.6541 21.8201C55.6791 22.0313 55.2924 22.374 54.6064 23.1055C54.0995 23.2778 53.5916 23.4473 53.0825 23.6133C52.9149 23.8646 52.7472 24.116 52.5745 24.375C52.2393 24.2912 51.904 24.2074 51.5586 24.1211C54.2401 22.1004 57.0479 20.2416 59.9401 18.5352Z" fill="#499F91"/>
<path d="M202.171 135.332C204.514 135.474 206.781 135.904 209.077 136.364C209.443 136.436 209.81 136.508 210.176 136.58C211.064 136.755 211.952 136.932 212.839 137.109C212.42 137.445 212.001 137.78 211.569 138.125C211.443 137.874 211.443 137.874 211.315 137.617C211.111 137.633 210.906 137.649 210.696 137.665C209.909 137.623 209.475 137.53 208.758 137.266C207.25 136.746 205.709 136.486 204.142 136.208C203.815 136.147 203.815 136.147 203.481 136.085C203.186 136.032 203.186 136.032 202.884 135.979C202.657 135.91 202.657 135.91 202.425 135.84C202.342 135.672 202.258 135.505 202.171 135.332Z" fill="#37828A"/>
<path d="M9.39757 74.3945C9.5652 74.4783 9.73283 74.5621 9.90554 74.6484C9.76058 75.6629 9.42287 76.3212 8.88961 77.1875C8.80363 77.5257 8.7191 77.8643 8.63562 78.2031C8.48991 78.5608 8.3359 78.9151 8.17528 79.2664C7.89468 79.8812 7.61669 80.4954 7.3538 81.1181C7.26867 81.3187 7.18355 81.5194 7.09584 81.7261C7.01956 81.9087 6.94327 82.0913 6.86468 82.2795C6.58823 82.8028 6.27952 83.141 5.8418 83.5352C5.94991 81.7083 6.72737 80.1843 7.47682 78.5364C7.60467 78.2502 7.73252 77.9639 7.86424 77.669C8.35756 76.5681 8.85 75.4698 9.39757 74.3945Z" fill="#459E91"/>
<path d="M197.6 20.8203C198.812 20.9491 199.554 21.2702 200.552 21.9629C200.948 22.2368 200.948 22.2368 201.353 22.5163C202.413 23.2792 203.456 24.062 204.496 24.8521C205.473 25.5798 206.481 26.2547 207.505 26.9141C206.743 27.168 206.743 27.168 206.076 26.9617C205.473 26.6602 205.473 26.6602 205.219 26.1523C204.968 26.0686 204.716 25.9848 204.457 25.8984C204.457 25.7309 204.457 25.5633 204.457 25.3906C204.206 25.3068 203.954 25.223 203.695 25.1367C203.395 24.9044 203.105 24.6597 202.822 24.4067C202.665 24.2699 202.509 24.1331 202.347 23.9922C202.205 23.8671 202.063 23.7421 201.917 23.6133C201.229 23.0112 200.874 22.8441 199.965 22.5977C199.687 22.5139 199.41 22.4301 199.124 22.3437C199.04 22.0924 198.956 21.841 198.87 21.582C198.233 21.2726 198.233 21.2726 197.6 21.0742C197.6 20.9904 197.6 20.9066 197.6 20.8203Z" fill="#469D91"/>
<path d="M67.0518 14.4727C67.3033 14.5564 67.5547 14.6402 67.8138 14.7266C66.4757 16.2872 64.6458 17.0851 62.7341 17.7734C62.4827 17.7734 62.2312 17.7734 61.9721 17.7734C61.8883 18.0248 61.8045 18.2762 61.7182 18.5352C61.2991 18.6189 60.88 18.7027 60.4482 18.7891C60.769 17.8271 61.0436 17.7687 61.9225 17.3043C62.1704 17.1716 62.4182 17.0389 62.6736 16.9021C63.065 16.6972 63.065 16.6972 63.4643 16.488C63.977 16.2155 64.4896 15.9428 65.0021 15.6698C65.2306 15.5496 65.4591 15.4295 65.6945 15.3057C66.3297 14.97 66.3297 14.97 67.0518 14.4727Z" fill="#469F91"/>
<path d="M23.1124 117.812C24.4558 117.762 25.6343 117.938 26.938 118.273C27.3163 118.366 27.6946 118.459 28.073 118.551C28.2616 118.598 28.4502 118.644 28.6445 118.692C30.0108 119.021 31.3882 119.302 32.7638 119.59C32.68 119.757 32.5961 119.925 32.5098 120.097C30.4375 119.918 28.4307 119.498 26.3983 119.066C26.0539 118.994 25.7095 118.921 25.365 118.849C24.5293 118.674 23.6937 118.497 22.8584 118.32C22.9422 118.153 23.026 117.985 23.1124 117.812Z" fill="#419E91"/>
<path d="M247.38 78.7109C248.974 81.6753 248.692 85.4574 247.801 88.5885C247.746 88.7642 247.691 88.94 247.634 89.1211C247.467 89.1211 247.299 89.1211 247.126 89.1211C247.163 88.964 247.2 88.8069 247.238 88.645C247.835 85.3271 247.613 82.0506 247.38 78.7109Z" fill="#459F91"/>
<path d="M113.023 1.01533C112.86 1.09388 112.698 1.17244 112.531 1.25337C112.023 1.48113 112.023 1.48113 111.753 1.77705C111.32 1.81702 110.885 1.84076 110.45 1.85739C110.187 1.86802 109.925 1.87866 109.654 1.88962C109.239 1.9046 109.239 1.9046 108.816 1.91987C108.4 1.93632 108.4 1.93632 107.975 1.9531C107.287 1.98013 106.599 2.00603 105.911 2.03096C105.911 1.86338 105.911 1.6958 105.911 1.52314C106.762 1.3867 107.615 1.25607 108.467 1.12641C108.706 1.08796 108.946 1.0495 109.193 1.00988C110.548 0.806892 111.679 0.73391 113.023 1.01533Z" fill="#499F95"/>
<path d="M222.744 41.1328C223.982 42.0955 225.002 43.1633 226.014 44.3542C226.138 44.4991 226.262 44.644 226.39 44.7933C226.925 45.4316 227.304 45.9217 227.57 46.7188C227.318 46.7188 227.067 46.7188 226.808 46.7188C226.546 46.3003 226.292 45.877 226.046 45.4492C225.878 45.4492 225.711 45.4492 225.538 45.4492C225.538 45.2816 225.538 45.1141 225.538 44.9414C224.939 44.3096 224.313 43.7144 223.681 43.1165C223.252 42.6562 223.252 42.6562 223.252 42.1484C223.084 42.1484 222.917 42.1484 222.744 42.1484C222.744 41.8133 222.744 41.4781 222.744 41.1328Z" fill="#46A191"/>
<path d="M176.773 9.39453C177.377 9.63173 177.98 9.86991 178.583 10.1086C178.752 10.1749 178.921 10.2412 179.095 10.3095C180.126 10.719 181.12 11.1681 182.107 11.6797C182.023 11.8473 181.939 12.0148 181.853 12.1875C181.156 12.0483 180.604 11.8298 179.948 11.5369C179.062 11.1076 179.062 11.1076 178.043 11.1719C177.646 10.8386 177.646 10.8386 177.281 10.4102C177.14 10.2688 176.998 10.1274 176.852 9.98169C176.742 9.87172 176.632 9.76174 176.519 9.64844C176.603 9.56465 176.687 9.48086 176.773 9.39453Z" fill="#479F91"/>
<path d="M166.614 5.83984C168.521 6.32665 170.362 6.91653 172.201 7.61719C172.118 7.78477 172.034 7.95234 171.947 8.125C171.779 8.07296 171.61 8.02092 171.436 7.9673C171.212 7.89889 170.988 7.83049 170.757 7.76001C170.536 7.69226 170.315 7.62451 170.087 7.5547C169.441 7.37256 168.798 7.23187 168.138 7.10938C168.138 6.9418 168.138 6.77422 168.138 6.60156C167.719 6.68535 167.3 6.76914 166.868 6.85547C166.784 6.52031 166.7 6.18516 166.614 5.83984Z" fill="#449D92"/>
<path d="M236.713 58.9062C237.591 59.7345 238.171 60.698 238.808 61.7151C238.928 61.9012 239.048 62.0872 239.171 62.2789C239.283 62.4572 239.395 62.6354 239.511 62.819C239.614 62.9817 239.716 63.1444 239.822 63.312C239.918 63.5191 239.918 63.5191 240.015 63.7305C239.931 63.898 239.847 64.0656 239.761 64.2383C237.983 62.4609 237.983 62.4609 237.856 61.8103C237.814 61.6061 237.772 61.4018 237.729 61.1914C237.561 61.1076 237.394 61.0238 237.221 60.9375C236.872 60.2005 236.713 59.7286 236.713 58.9062Z" fill="#439D90"/>
<path d="M153.406 2.53906C155.318 2.701 157.132 3.09738 158.994 3.55469C158.91 3.72227 158.826 3.88984 158.74 4.0625C158.327 4.0762 157.915 4.08606 157.502 4.09424C157.157 4.10308 157.157 4.10308 156.805 4.11209C156.2 4.0625 156.2 4.0625 155.692 3.55469C155.306 3.40276 154.913 3.26649 154.517 3.14209C154.31 3.07598 154.102 3.00986 153.888 2.94174C153.65 2.8681 153.65 2.8681 153.406 2.79297C153.406 2.70918 153.406 2.62539 153.406 2.53906Z" fill="#459E92"/>
<path d="M142.485 0.761719C143.046 0.797823 143.607 0.835077 144.168 0.872803C144.48 0.893423 144.793 0.914043 145.115 0.935287C145.944 1.00715 146.747 1.11983 147.565 1.26953C147.565 1.43711 147.565 1.60469 147.565 1.77734C146.781 2.03859 146.514 2.02858 145.729 1.88942C145.525 1.85423 145.321 1.81905 145.111 1.7828C144.794 1.72511 144.794 1.72511 144.47 1.66626C144.255 1.62878 144.04 1.59131 143.819 1.5527C143.29 1.45997 142.761 1.36497 142.231 1.26953C142.315 1.10195 142.399 0.934375 142.485 0.761719Z" fill="#4A9E92"/>
<path d="M233.666 54.3359C234.515 55.1236 235.129 55.97 235.761 56.9385C235.94 57.2121 236.12 57.4857 236.305 57.7676C236.439 57.9758 236.574 58.184 236.713 58.3984C236.63 58.566 236.546 58.7336 236.459 58.9062C236.349 58.791 236.239 58.6758 236.126 58.5571C235.67 58.0937 235.67 58.0937 234.935 57.6367C234.676 57.0464 234.422 56.454 234.173 55.8594C234.006 55.7756 233.838 55.6918 233.666 55.6055C233.666 55.1865 233.666 54.7676 233.666 54.3359Z" fill="#459B91"/>
<path d="M227.824 46.9727C228.895 47.7564 229.652 48.6214 230.443 49.6704C230.558 49.819 230.674 49.9676 230.793 50.1207C231.633 51.2229 231.633 51.2229 231.633 51.7969C231.126 51.7969 231.126 51.7969 230.506 51.2415C229.916 50.5935 229.526 50.0137 229.094 49.2578C228.759 48.7924 228.419 48.3322 228.075 47.8742C227.824 47.4805 227.824 47.4805 227.824 46.9727Z" fill="#459F90"/>
<path d="M190.996 16.25C191.568 16.5718 192.139 16.8946 192.71 17.218C192.872 17.3085 193.033 17.399 193.199 17.4923C194.031 17.9645 194.819 18.4433 195.568 19.043C194.806 19.2969 194.806 19.2969 194.343 19.0995C193.904 18.8268 193.466 18.554 193.028 18.2812C193.028 18.1137 193.028 17.9461 193.028 17.7734C192.693 17.7734 192.357 17.7734 192.012 17.7734C192.012 17.6059 192.012 17.4383 192.012 17.2656C191.677 17.098 191.342 16.9305 190.996 16.7578C190.996 16.5902 190.996 16.4227 190.996 16.25Z" fill="#449D8F"/>
<path d="M87.3701 253.398C87.9419 253.513 88.5133 253.63 89.0845 253.748C89.5619 253.845 89.5619 253.845 90.0489 253.944C90.7642 254.12 91.3107 254.302 91.9418 254.668C91.9418 254.836 91.9418 255.003 91.9418 255.176C88.7239 254.395 88.7239 254.395 87.3701 253.906C87.3701 253.739 87.3701 253.571 87.3701 253.398Z" fill="#348189"/>
<path d="M18.0333 116.797C20.9596 116.995 20.9596 116.995 22.351 117.559C22.351 117.726 22.351 117.894 22.351 118.066C20.8423 117.815 19.3337 117.564 17.7793 117.305C17.8631 117.137 17.9469 116.97 18.0333 116.797Z" fill="#429E92"/>
<path d="M245.349 74.1406C245.823 74.8524 246.179 75.5404 246.539 76.3147C246.655 76.5612 246.772 76.8076 246.891 77.0615C246.969 77.2707 247.047 77.4798 247.127 77.6953C247.043 77.8629 246.959 78.0305 246.873 78.2031C246.621 78.1193 246.37 78.0355 246.111 77.9492C245.869 77.3492 245.869 77.3492 245.682 76.6003C245.618 76.3552 245.554 76.11 245.489 75.8575C245.349 75.1562 245.349 75.1562 245.349 74.1406Z" fill="#469E93"/>
<path d="M72.1313 12.1875C72.1313 12.3551 72.1313 12.5227 72.1313 12.6953C71.8903 12.8105 71.6493 12.9257 71.4011 13.0444C70.6066 13.4069 70.6066 13.4069 70.0994 13.9648C69.4942 14.1255 69.4942 14.1255 68.7977 14.2505C68.5666 14.293 68.3355 14.3356 68.0973 14.3794C67.9199 14.4102 67.7424 14.441 67.5596 14.4727C68.366 13.8242 69.2057 13.362 70.1312 12.9016C70.399 12.7671 70.6668 12.6326 70.9427 12.494C71.6233 12.1875 71.6233 12.1875 72.1313 12.1875Z" fill="#449E91"/>
<path d="M104.388 2.03173C104.304 2.2831 104.22 2.53447 104.134 2.79345C103.769 2.83629 103.404 2.87848 103.039 2.9204C102.835 2.94397 102.632 2.96753 102.422 2.99181C101.848 3.04736 101.848 3.04736 101.086 3.04736C100.918 2.87978 100.751 2.7122 100.578 2.53954C101.867 2.21885 103.049 1.96308 104.388 2.03173Z" fill="#44A092"/>
<path d="M246.111 181.543C246.278 181.627 246.446 181.711 246.618 181.797C246.49 183.379 245.774 184.705 245.095 186.113C244.758 185.192 244.927 184.71 245.317 183.828C245.648 183.069 245.934 182.353 246.111 181.543Z" fill="#358089"/>
<path d="M215.299 137.601C215.599 137.651 215.898 137.7 216.207 137.751C216.551 137.81 216.551 137.81 216.903 137.871C216.903 138.038 216.903 138.206 216.903 138.379C216.368 138.35 215.834 138.317 215.299 138.283C215.002 138.266 214.704 138.248 214.397 138.23C213.601 138.125 213.601 138.125 212.839 137.617C213.773 137.306 214.333 137.438 215.299 137.601Z" fill="#37838A"/>
<path d="M215.125 34.0234C216.478 34.3923 217.249 35.3136 218.172 36.3086C217.921 36.4343 217.921 36.4343 217.664 36.5625C216.048 35.5209 216.048 35.5209 215.379 34.7852C215.211 34.6176 215.043 34.45 214.871 34.2773C214.954 34.1936 215.038 34.1098 215.125 34.0234Z" fill="#469F92"/>
<path d="M207.505 27.168C208.721 28.0658 209.909 28.9821 211.061 29.9609C210.247 29.9609 209.767 29.7722 209.029 29.4531C209.029 29.2018 209.029 28.9504 209.029 28.6914C208.777 28.6914 208.526 28.6914 208.267 28.6914C207.711 28.0566 207.711 28.0566 207.251 27.4219C207.335 27.3381 207.419 27.2543 207.505 27.168Z" fill="#449D94"/>
<path d="M187.186 14.2188C188.192 14.7215 189.198 15.2242 190.234 15.7422C190.234 15.9936 190.234 16.2449 190.234 16.5039C189.027 16.0278 189.027 16.0278 188.456 15.7422C188.456 15.5746 188.456 15.407 188.456 15.2344C188.037 15.1506 187.618 15.0668 187.186 14.9805C187.186 14.7291 187.186 14.4777 187.186 14.2188Z" fill="#4FA196"/>
<path d="M158.994 3.80859C160.881 4.0625 160.881 4.0625 161.788 4.31641C161.788 4.48398 161.788 4.65156 161.788 4.82422C162.039 4.90801 162.291 4.9918 162.55 5.07812C160.509 5.27814 160.509 5.27814 159.486 4.44336C159.324 4.23389 159.161 4.02441 158.994 3.80859Z" fill="#44A092"/>
<path d="M117.341 0.253705C117.851 0.326511 118.36 0.406648 118.865 0.507612C118.865 0.591401 118.865 0.67519 118.865 0.761518C117.356 0.845307 115.847 0.929096 114.293 1.01542C115.417 0.172583 116.014 0.141909 117.341 0.253705Z" fill="#4E9F96"/>
<path d="M11.1753 70.8398C11.5041 71.8261 11.3362 72.1822 10.9213 73.125C10.2546 73.855 10.2546 73.855 9.65137 74.3945C9.79895 73.4398 10.0709 72.7364 10.5562 71.9031C10.6718 71.7024 10.7873 71.5018 10.9064 71.2951C11.0395 71.0697 11.0395 71.0697 11.1753 70.8398Z" fill="#459E8F"/>
<path d="M224.776 43.6719C225.636 44.0372 226.137 44.4898 226.744 45.1953C226.978 45.4624 226.978 45.4624 227.217 45.7349C227.57 46.2109 227.57 46.2109 227.57 46.7188C227.318 46.7188 227.067 46.7188 226.808 46.7188C226.546 46.3003 226.292 45.877 226.046 45.4492C225.878 45.4492 225.711 45.4492 225.538 45.4492C225.538 45.2816 225.538 45.1141 225.538 44.9414C225.412 44.8157 225.286 44.69 225.157 44.5605C225.031 44.4349 224.905 44.3092 224.776 44.1797C224.776 44.0121 224.776 43.8445 224.776 43.6719Z" fill="#409B8C"/>
<path d="M209.029 117.051C208.369 117.491 207.978 117.682 207.235 117.876C207.059 117.925 206.883 117.973 206.702 118.023C206.548 118.037 206.394 118.052 206.235 118.067C206.067 117.899 205.9 117.732 205.727 117.559C206.932 116.914 207.683 116.715 209.029 117.051Z" fill="#479F92"/>
<path d="M66.5441 15.9964C66.1426 16.2039 65.7403 16.4099 65.3376 16.6153C65.1137 16.7301 64.8897 16.845 64.659 16.9634C64.0951 17.2239 63.5942 17.3967 62.9883 17.5198C64.0913 16.3226 64.8976 15.5162 66.5441 15.9964Z" fill="#52A297"/>
<path d="M244.079 71.6016C244.798 72.4149 244.973 73.0694 245.095 74.1406C245.011 73.973 244.927 73.8055 244.841 73.6328C244.673 73.6328 244.505 73.6328 244.333 73.6328C243.97 73.035 243.803 72.7491 243.92 72.0459C243.972 71.8993 244.025 71.7526 244.079 71.6016Z" fill="#489E93"/>
<path d="M211.061 30.2148C211.958 30.7133 212.647 31.2408 213.346 31.9922C213.263 32.1598 213.179 32.3273 213.092 32.5C212.941 32.3377 212.789 32.1753 212.632 32.0081C212.1 31.4328 212.1 31.4328 211.315 31.2305C211.14 30.7068 211.14 30.7068 211.061 30.2148Z" fill="#419A90"/>
<path d="M199.885 134.824C200.64 134.908 201.394 134.992 202.171 135.078C201.743 135.491 201.743 135.491 201.155 135.84C200.457 135.634 200.457 135.634 199.885 135.332C199.885 135.164 199.885 134.997 199.885 134.824Z" fill="#348087"/>
<path d="M182.615 11.9336C183.495 12.3106 183.495 12.3106 184.393 12.6953C184.309 12.9467 184.225 13.198 184.139 13.457C182.9 12.7905 182.9 12.7905 182.615 11.9336Z" fill="#469E91"/>
<path d="M124.452 78.9648C124.704 79.0486 124.955 79.1324 125.214 79.2188C125.874 80.8576 125.932 82.6477 126.087 84.3921C126.103 84.5636 126.118 84.7352 126.134 84.9119C126.553 89.5587 126.763 94.2209 126.991 98.88C127.007 99.1868 127.022 99.4937 127.037 99.8098C127.066 100.386 127.093 100.962 127.12 101.539C127.14 101.933 127.14 101.933 127.159 102.335C127.175 102.673 127.175 102.673 127.192 103.019C127.238 103.733 127.302 104.442 127.371 105.155C127.508 106.631 127.567 108.103 127.61 109.584C127.628 110.167 127.646 110.751 127.665 111.335C127.679 111.795 127.679 111.795 127.693 112.266C127.745 113.946 127.801 115.626 127.857 117.307C127.866 117.571 127.866 117.571 127.875 117.84C128.013 121.923 128.185 126.005 128.364 130.086C128.376 130.354 128.376 130.354 128.388 130.628C128.484 132.824 128.582 135.02 128.68 137.217C128.762 139.047 128.843 140.877 128.924 142.707C129.028 145.073 129.133 147.439 129.238 149.805C129.399 153.404 129.558 157.003 129.715 160.602C129.767 161.789 129.819 162.976 129.87 164.162C129.912 165.105 129.953 166.048 129.993 166.991C129.752 176.332 129.752 176.332 133.277 184.548C134.541 185.631 135.753 185.962 137.405 185.859C138.997 185.631 140.066 184.993 141.046 183.717C142.522 181.448 143.064 178.655 143.636 176.046C143.716 175.691 143.796 175.335 143.877 174.979C144.047 174.226 144.215 173.472 144.383 172.718C144.647 171.529 144.915 170.341 145.183 169.153C145.228 168.953 145.273 168.754 145.319 168.548C145.411 168.145 145.502 167.741 145.593 167.337C145.73 166.729 145.867 166.121 146.004 165.514C146.907 161.509 147.851 157.515 148.804 153.523C149.757 149.529 149.757 149.529 150.659 145.524C150.7 145.338 150.741 145.151 150.783 144.959C150.962 144.144 151.137 143.328 151.307 142.51C152.041 139.117 153.326 135.924 155.946 133.555C156.074 133.42 156.202 133.285 156.334 133.146C158.687 130.819 162.101 129.705 165.344 129.492C165.634 129.469 165.924 129.445 166.223 129.421C169.913 129.271 173.553 130.033 177.176 130.656C177.801 130.764 178.426 130.87 179.052 130.976C190.291 132.885 201.519 134.888 212.709 137.067C215.416 137.593 218.127 138.096 220.841 138.587C224.906 139.323 228.968 140.074 233.026 140.844C234.042 141.037 235.059 141.229 236.076 141.418C237.089 141.607 238.102 141.799 239.114 141.992C239.49 142.063 239.867 142.134 240.244 142.203C245.036 143.089 249.491 144.339 252.46 148.535C254.829 152.569 255.303 156.39 254.179 160.942C254.093 161.263 254.008 161.583 253.92 161.913C253.876 162.084 253.832 162.254 253.786 162.43C250.832 173.801 246.354 185.184 240.302 195.28C239.972 195.834 239.649 196.392 239.325 196.951C235.572 203.379 231.089 209.469 226.075 214.974C225.593 215.505 225.119 216.041 224.649 216.582C222.763 218.742 220.824 220.827 218.791 222.85C218.564 223.078 218.337 223.306 218.103 223.541C216.951 224.692 215.784 225.807 214.548 226.868C213.953 227.38 213.381 227.917 212.807 228.452C211.193 229.92 209.493 231.257 207.759 232.578C207.564 232.727 207.37 232.875 207.17 233.028C200.832 237.856 194.242 242.068 187.186 245.781C186.97 245.897 186.753 246.012 186.53 246.131C182.308 248.369 177.914 250.136 173.471 251.875C173.24 251.967 173.01 252.058 172.772 252.153C164.953 255.25 156.704 257.294 148.422 258.667C148.138 258.714 147.855 258.762 147.563 258.811C146.549 258.969 145.534 259.108 144.517 259.238C144.27 259.27 144.023 259.302 143.769 259.335C138.98 259.941 134.266 260.122 129.446 260.099C128.501 260.095 127.556 260.098 126.612 260.102C108.401 260.173 88.9025 256.473 72.6185 248.064C71.7681 247.627 70.9059 247.221 70.0367 246.823C67.5282 245.671 65.126 244.363 62.7339 242.988C62.4507 242.826 62.4507 242.826 62.1617 242.66C59.8397 241.326 57.5761 239.936 55.3684 238.418C55.0408 238.196 54.713 237.974 54.3852 237.751C50.8475 235.348 47.4982 232.751 44.1931 230.039C43.9147 229.811 43.6362 229.583 43.3577 229.356C42.9021 228.983 42.4467 228.61 41.9916 228.237C41.5637 227.888 41.1281 227.549 40.6879 227.215C40.5036 227.058 40.1294 226.738 40.1294 226.738L38.3502 225.021C38.2085 224.88 38.0669 224.74 37.9209 224.595C37.7706 224.443 37.6204 224.29 37.4655 224.134C37.3077 223.976 37.1498 223.818 36.9872 223.655C36.6534 223.321 36.3202 222.986 35.9876 222.65C35.4841 222.142 34.9786 221.636 34.4728 221.131C32.9186 219.572 31.3911 218.01 29.97 216.328C29.6217 215.946 29.2726 215.565 28.9223 215.186C24.9862 210.811 21.4585 206.047 18.2867 201.094C18.1029 200.809 18.1029 200.809 17.9153 200.518C15.5528 196.837 13.4586 193.033 11.4292 189.16C11.3316 188.977 11.234 188.793 11.1335 188.604C8.38831 183.438 6.21566 178.16 7.76227 172.26C8.86914 169.013 10.8165 166.654 13.2071 164.277C13.3894 164.095 13.5718 163.913 13.7597 163.725C15.5982 162.001 17.7367 160.62 19.8106 159.199C20.0644 159.024 20.3181 158.849 20.5795 158.669C36.1485 148.106 53.3225 139.746 72.0933 137.221C72.9316 137.104 73.7669 136.972 74.6027 136.839C75.8961 136.638 77.1739 136.49 78.481 136.427C78.6841 136.417 78.8873 136.406 79.0966 136.395C80.588 136.333 82.0558 136.383 83.5448 136.475C90.604 136.897 98.7443 136.909 104.387 132.031C104.6 131.849 104.814 131.667 105.033 131.48C113.622 123.546 115.711 107.588 118.774 96.8043C119.638 93.7648 120.515 90.7296 121.406 87.698C121.551 87.2036 121.696 86.7092 121.84 86.2146C123.75 79.6668 123.75 79.6668 124.452 78.9648Z" fill="#3B8C96"/>
<path d="M127.012 -0.142654C127.649 -0.14248 128.286 -0.143464 128.923 -0.144499C134.085 -0.147473 139.142 0.0574602 144.263 0.762064C144.484 0.791989 144.704 0.821914 144.931 0.852746C146.231 1.03266 147.526 1.23822 148.819 1.46031C149.008 1.4922 149.197 1.52409 149.392 1.55695C153.232 2.20884 157.005 3.06681 160.772 4.06285C161.044 4.13383 161.317 4.20481 161.598 4.27795C168.857 6.18232 176.138 8.62493 182.882 11.9445C183.233 12.117 183.584 12.288 183.936 12.458C189.193 14.9978 194.231 17.8921 199.124 21.0746C199.273 21.171 199.423 21.2675 199.577 21.3669C201.261 22.4559 202.879 23.6151 204.475 24.8296C205.175 25.3577 205.885 25.8673 206.6 26.3749C207.963 27.3606 209.235 28.4338 210.509 29.5289C211.209 30.1294 211.926 30.7051 212.648 31.2784C215.712 33.7835 218.502 36.6139 221.308 39.3993C221.584 39.6728 221.86 39.946 222.136 40.2188C223.711 41.7743 225.188 43.3553 226.57 45.0882C226.978 45.5988 227.394 46.0948 227.827 46.5842C229.782 48.796 231.537 51.1302 233.262 53.5246C233.612 54.0079 233.965 54.4877 234.321 54.9661C240.27 63.0636 249.218 75.5972 248.397 86.0746C247.682 90.3198 245.545 93.8836 242.063 96.4371C241.55 96.7921 241.037 97.1464 240.523 97.5004C239.964 97.9032 239.408 98.3092 238.851 98.7151C237.156 99.9496 235.448 101.152 233.695 102.303C232.534 103.08 231.395 103.889 230.256 104.699C227.524 106.639 224.761 108.532 221.975 110.395C221.652 110.611 221.329 110.828 221.007 111.045C215.524 114.742 210.15 117.275 203.695 118.828C203.489 118.878 203.282 118.928 203.069 118.98C195.707 120.648 187.576 119.673 180.276 118.273C176.372 117.527 172.567 116.902 168.582 116.892C168.1 116.888 168.1 116.888 167.609 116.884C164.554 116.93 161.609 117.589 158.899 119.035C158.729 119.123 158.559 119.212 158.384 119.303C152.053 122.681 149.078 128.393 146.986 134.982C146.484 136.638 146.107 138.327 145.723 140.014C145.627 140.432 145.529 140.851 145.432 141.269C145.228 142.147 145.026 143.025 144.824 143.903C144.524 145.208 144.219 146.512 143.913 147.815C143.262 150.593 142.618 153.372 141.977 156.153C141.883 156.563 141.883 156.563 141.786 156.982C141.38 158.748 140.975 160.513 140.573 162.279C140.443 162.848 140.313 163.416 140.183 163.985C139.998 164.791 139.814 165.598 139.631 166.405C139.572 166.665 139.513 166.925 139.452 167.192C139.136 168.609 138.847 170.027 138.584 171.454C138.528 171.757 138.472 172.06 138.414 172.372C138.308 172.956 138.205 173.541 138.104 174.126C138.057 174.388 138.01 174.65 137.961 174.92C137.921 175.151 137.881 175.383 137.84 175.621C137.642 176.27 137.414 176.545 136.898 176.973C136.508 176.583 136.586 176.207 136.557 175.663C136.538 175.32 136.538 175.32 136.518 174.97C136.505 174.716 136.492 174.462 136.479 174.2C136.464 173.932 136.45 173.665 136.435 173.389C136.387 172.489 136.34 171.589 136.294 170.689C136.261 170.053 136.228 169.417 136.194 168.781C135.895 163.006 135.64 157.228 135.397 151.45C135.367 150.76 135.338 150.07 135.309 149.38C135.302 149.207 135.295 149.035 135.287 148.857C135.088 144.154 134.865 139.452 134.644 134.749C134.592 133.642 134.54 132.534 134.488 131.426C134.478 131.212 134.468 130.997 134.458 130.775C134.427 130.126 134.397 129.476 134.367 128.827C134.352 128.505 134.352 128.505 134.336 128.177C134.275 126.859 134.213 125.542 134.151 124.224C134.13 123.762 134.108 123.301 134.087 122.84C133.804 116.795 133.529 110.75 133.268 104.704C133.029 99.1703 132.785 93.6363 132.499 88.1044C132.469 87.5157 132.44 86.927 132.411 86.3383C132.281 83.6538 132.122 80.9843 131.731 78.3235C131.691 78.0395 131.691 78.0395 131.651 77.7498C131.324 75.7447 130.439 73.8029 128.831 72.5124C127.13 71.3873 125.486 71.754 123.5 72.0004C121.576 72.4982 120.292 73.5741 119.278 75.2112C117.537 78.4711 116.678 82.292 115.626 85.8207C115.491 86.2736 115.355 86.7265 115.22 87.1795C114.158 90.7362 113.118 94.2994 112.088 97.8656C105.296 121.369 105.296 121.369 102.61 124.668C102.446 124.878 102.283 125.088 102.115 125.304C99.3519 128.631 95.5104 130.021 91.2935 130.429C85.2185 130.909 79.2449 130.173 73.3268 128.834C71.7799 128.484 70.2302 128.147 68.681 127.807C68.3602 127.737 68.0394 127.666 67.7088 127.593C64.1646 126.815 60.6086 126.098 57.0513 125.382C52.9238 124.55 48.8 123.706 44.6855 122.812C39.9028 121.773 35.1073 120.799 30.3105 119.828C29.6873 119.702 29.0641 119.576 28.4409 119.449C24.6156 118.674 20.7904 117.899 16.9576 117.161C16.4837 117.069 16.0098 116.977 15.536 116.886C14.7193 116.727 13.9021 116.573 13.0842 116.422C8.80098 115.608 5.02181 113.956 2.36438 110.379C0.14783 106.953 -0.24863 103.154 0.516299 99.2186C0.735778 98.2138 0.997029 97.2224 1.27007 96.2308C1.34095 95.9733 1.41183 95.7158 1.48486 95.4505C4.24021 85.5875 8.12043 76.1186 13.1 67.1737C13.4216 66.5953 13.7401 66.0154 14.0576 65.4348C16.0786 61.7602 18.2924 58.1879 20.8268 54.8441C21.0616 54.5289 21.296 54.2135 21.5303 53.8979C24.2152 50.2879 26.9794 46.7812 29.9703 43.4183C30.1431 43.223 30.1431 43.223 30.3194 43.0237C32.1383 40.9774 34.0697 39.0404 36.0024 37.1024C36.1283 36.9758 36.2543 36.8492 36.384 36.7188C37.8406 35.2567 39.3169 33.8357 40.8916 32.5003C41.1726 32.2563 41.4533 32.012 41.7339 31.7674C44.8308 29.0896 47.9932 26.5231 51.3563 24.1854C51.8228 23.8606 52.2871 23.5329 52.7514 23.205C56.9272 20.2752 61.2874 17.6438 65.782 15.2347C66.0163 15.1078 66.2505 14.9808 66.4919 14.85C78.3961 8.41661 91.5623 3.89276 104.927 1.68781C105.626 1.57134 106.323 1.45003 107.02 1.32306C113.674 0.127976 120.269 -0.144907 127.012 -0.142654Z" fill="#46A79C"/>
<g>
<path d="M74.4307 129C83.9996 131 95.9996 132 101.431 126C105.734 121.246 106.5 116 108.931 108.5L115.931 85.0005C118.364 75.4123 119.684 72.5827 124.431 71.5005C129.177 70.4182 132.431 75.0004 132.431 84.5004L136.5 170C136.706 178.521 137.147 178.63 138.5 171C147 133.5 148 124 157.5 120L164.931 129.5C153.247 130.422 149.911 146.907 144 176.5C142.5 186 133 193 130 176L126 83.5004C125.344 79.2924 123 82.5004 123 82.5004C123 82.5004 117 103 114 115.5C112.155 123.188 108.059 129.882 104 132.5C99.9404 135.118 97.3814 135.933 92.4307 136.5C87.48 137.067 84.4307 136 77.4307 136.5L74.4307 129Z" fill="url(#paint0_linear_396_1253)"/>
</g>
</g>
<defs>
<linearGradient id="paint0_linear_396_1253" x1="165" y1="129" x2="74.4307" y2="128.839" gradientUnits="userSpaceOnUse">
<stop stop-color="#CDF0E9"/>
<stop offset="0.5" stop-color="white"/>
<stop offset="1" stop-color="#CDF0E9"/>
</linearGradient>
<clipPath id="clip0_396_1253">
<rect width="255" height="260" fill="white"/>
</clipPath>
</defs>
</svg>
